<svg xmlns="http://www.w3.org/2000/svg" width="200" height="200" viewBox="0 0 200 200">
    <g fill="none" fill-rule="evenodd">
        <g fill-rule="nonzero" transform="translate(36)">
            <path fill="#FFF" d="M1.332 191.762V8.31a8 8 0 0 1 8-8h93.71a8 8 0 0 1 8 8v183.452a8 8 0 0 1-8 8H9.333a8 8 0 0 1-8-8z"/>
            <path fill="#2A2E33" d="M102.649 200H9.702C4.344 200 0 195.685 0 190.361V9.64C0 4.315 4.344 0 9.702 0h92.947c5.358 0 9.702 4.315 9.702 9.639V190.36c0 5.324-4.344 9.639-9.702 9.639zM9.702 1.855c-4.34 0-7.859 3.496-7.859 7.808v180.723c0 4.311 3.519 7.807 7.86 7.807h92.946c4.34 0 7.858-3.496 7.858-7.807V9.663c0-4.312-3.518-7.808-7.858-7.808H9.702z"/>
            <path fill="#FFF" d="M10.007 166.817V26.822a5 5 0 0 1 5-5H97.32a5 5 0 0 1 5 5v139.995a5 5 0 0 1-5 5H15.007a5 5 0 0 1-5-5z"/>
            <path fill="#2A2E33" d="M98.574 172.241H13.898c-2.813 0-5.093-2.266-5.093-5.06V26.48c0-2.794 2.28-5.06 5.093-5.06h84.676a5.11 5.11 0 0 1 3.601 1.483 5.043 5.043 0 0 1 1.492 3.578V167.18c0 1.342-.536 2.629-1.492 3.578a5.11 5.11 0 0 1-3.601 1.482zM13.898 23.157c-1.803.013-3.261 1.462-3.274 3.253v140.698c.013 1.792 1.471 3.24 3.274 3.253h84.676c1.803-.013 3.26-1.461 3.274-3.253V26.482a3.266 3.266 0 0 0-.94-2.34 3.31 3.31 0 0 0-2.334-.985H13.898z"/>
            <ellipse cx="56.175" cy="184.265" fill="#FFF" rx="7.519" ry="7.47"/>
            <path fill="#2A2E33" d="M56.175 192.627c-4.648 0-8.416-3.744-8.416-8.362s3.768-8.361 8.416-8.361c4.649 0 8.417 3.743 8.417 8.361s-3.768 8.362-8.417 8.362zm0-14.916a6.623 6.623 0 0 0-6.135 4.044 6.547 6.547 0 0 0 1.42 7.177 6.654 6.654 0 0 0 7.22 1.437 6.578 6.578 0 0 0 2.17-10.738 6.644 6.644 0 0 0-4.675-1.944v.024z"/>
        </g>
        <path fill="#4CBAFF" d="M78.63 66.06h74.85c10.631.027 19.243 8.639 19.27 19.27v34.55c-.027 10.631-8.639 19.243-19.27 19.27H98.03a33.53 33.53 0 0 1-5.67 11.52 35.74 35.74 0 0 1-17.94 11.52v-23.53a19.33 19.33 0 0 1-15.06-18.79V85.33c.027-10.631 8.639-19.243 19.27-19.27z"/>
        <path fill="#00A6ED" d="M68.24 120.92V86.38c.027-10.631 8.639-19.243 19.27-19.27h72.17a19.33 19.33 0 0 1 13.06 18.22v34.55c-.027 10.631-8.639 19.243-19.27 19.27H98.02a30.65 30.65 0 0 1-14.73 19.25v-18.69a19.33 19.33 0 0 1-15.05-18.79z"/>
        <path fill="#FFF" d="M150.23 90.42H86.1a3.13 3.13 0 0 1 0-6.25h64.13a3.13 3.13 0 0 1 0 6.25zM86.1 99.17h64.13a3.13 3.13 0 0 1 0 6.25H86.1a3.13 3.13 0 0 1 0-6.25zM106.79 114.17h43.44a3.13 3.13 0 0 1 0 6.25h-43.44a3.13 3.13 0 1 1 0-6.25z"/>
        <path fill="#333" d="M73.17 163.74l1.53-.35a36.7 36.7 0 0 0 18.63-11.95 33.64 33.64 0 0 0 5.62-11h54.53c11.328-.011 20.509-9.192 20.52-20.52V85.33c-.017-11.324-9.196-20.499-20.52-20.51H78.63c-11.328.006-20.513 9.182-20.53 20.51v34.55a20.68 20.68 0 0 0 15.06 19.76v24.11l.01-.01zm80.31-96.42c9.941 0 18 8.059 18 18v34.55c0 9.941-8.059 18-18 18H97.1l-.26.9a32 32 0 0 1-5.45 11.08 34.71 34.71 0 0 1-15.71 10.63v-22.82l-1-.22a18.15 18.15 0 0 1-14.08-17.56V85.33c0-9.941 8.059-18 18-18h74.88v-.01z"/>
    </g>
</svg>
